name C:\Users\u0150099\Documents\master_thesis\3dpredictsim\Results\debug\Fal_s1_mtjc5_sc_cspx10_oy2_TrackAnkleQSubtQ_MTc2_MTPm_k1_d01_MTJm_nl_MG_exp5_table_d01_PF_Natali2010_x5_ls146_ig21.mot
datacolumns 128
datarows 4
range 0.55283677 0.58600697
endheader
time	pelvis_tilt	pelvis_list	pelvis_rotation	pelvis_tx	pelvis_ty	pelvis_tz	hip_flexion_l	hip_adduction_l	hip_rotation_l	hip_flexion_r	hip_adduction_r	hip_rotation_r	knee_angle_l	knee_angle_r	ankle_angle_l	ankle_angle_r	subtalar_angle_l	subtalar_angle_r	mtj_angle_l	mtj_angle_r	mtp_angle_l	mtp_angle_r	lumbar_extension	lumbar_bending	lumbar_rotation	arm_flex_l	arm_add_l	arm_rot_l	arm_flex_r	arm_add_r	arm_rot_r	elbow_flex_l	elbow_flex_r	pro_sup_l	pro_sup_r	glut_med1_l/activation	glut_med2_l/activation	glut_med3_l/activation	glut_min1_l/activation	glut_min2_l/activation	glut_min3_l/activation	semimem_l/activation	semiten_l/activation	bifemlh_l/activation	bifemsh_l/activation	sar_l/activation	add_long_l/activation	add_brev_l/activation	add_mag1_l/activation	add_mag2_l/activation	add_mag3_l/activation	tfl_l/activation	pect_l/activation	grac_l/activation	glut_max1_l/activation	glut_max2_l/activation	glut_max3_l/activation	iliacus_l/activation	psoas_l/activation	quad_fem_l/activation	gem_l/activation	peri_l/activation	rect_fem_l/activation	vas_med_l/activation	vas_int_l/activation	vas_lat_l/activation	med_gas_l/activation	lat_gas_l/activation	soleus_l/activation	tib_post_l/activation	flex_dig_l/activation	flex_hal_l/activation	tib_ant_l/activation	per_brev_l/activation	per_long_l/activation	per_tert_l/activation	ext_dig_l/activation	ext_hal_l/activation	ercspn_l/activation	intobl_l/activation	extobl_l/activation	glut_med1_r/activation	glut_med2_r/activation	glut_med3_r/activation	glut_min1_r/activation	glut_min2_r/activation	glut_min3_r/activation	semimem_r/activation	semiten_r/activation	bifemlh_r/activation	bifemsh_r/activation	sar_r/activation	add_long_r/activation	add_brev_r/activation	add_mag1_r/activation	add_mag2_r/activation	add_mag3_r/activation	tfl_r/activation	pect_r/activation	grac_r/activation	glut_max1_r/activation	glut_max2_r/activation	glut_max3_r/activation	iliacus_r/activation	psoas_r/activation	quad_fem_r/activation	gem_r/activation	peri_r/activation	rect_fem_r/activation	vas_med_r/activation	vas_int_r/activation	vas_lat_r/activation	med_gas_r/activation	lat_gas_r/activation	soleus_r/activation	tib_post_r/activation	flex_dig_r/activation	flex_hal_r/activation	tib_ant_r/activation	per_brev_r/activation	per_long_r/activation	per_tert_r/activation	ext_dig_r/activation	ext_hal_r/activation	ercspn_r/activation	intobl_r/activation	extobl_r/activation	
          0.55283677	         -2.92532200	          1.49963625	         -6.33607289	          0.73527290	          0.90522728	          0.00669360	         28.96762454	          1.42266037	         -4.32274630	        -19.34273913	          0.23963539	          6.16221870	         -9.10023730	         -6.72048212	          2.86461650	          6.76302579	         -0.63302888	          6.49947086	          3.61364245	         -4.01263607	         -8.21063457	         18.07681517	         -3.46349667	         -0.01993731	          0.98335888	         -5.95577695	        -13.45783572	         10.80879749	          4.70346813	        -13.85863628	         19.38713708	         18.82235749	         39.80406468	         86.51662706	         86.51662706	          0.06993129	          0.05000056	          0.05395662	          0.05000043	          0.05000059	          0.05000151	          0.33915364	          0.06528460	          0.07012569	          0.05000096	          0.05054056	          0.15207644	          0.13542347	          0.17715377	          0.17313575	          0.15744022	          0.05000986	          0.05515054	          0.07935993	          0.05001103	          0.05012371	          0.11616322	          0.05423488	          0.05088424	          0.23500485	          0.05000159	          0.05000051	          0.05000105	          0.05921338	          0.05921343	          0.05921309	          0.09030940	          0.05000066	          0.05000032	          0.06120059	          0.08451347	          0.05000087	          0.30731754	          0.13402372	          0.07469758	          0.05989016	          0.67347705	          0.30523844	          0.05542381	          0.11918256	          0.08756490	          0.30603573	          0.08724476	          0.08304844	          0.40344087	          0.21014620	          0.10530468	          0.05000239	          0.05000052	          0.05000050	          0.08304974	          0.09838548	          0.10995295	          0.05000040	          0.05000078	          0.05000208	          0.05000132	          0.60430094	          0.05000389	          0.05000255	          0.05007777	          0.05001402	          0.05000393	          0.27382419	          0.76562523	          0.05005041	          0.05921243	          0.08074590	          0.33709379	          0.06393216	          0.07042829	          0.05312721	          0.39242056	          0.53004861	          0.27810550	          0.36806344	          0.64488916	          0.41665411	          0.05000002	          0.17153872	          0.24777437	          0.05000028	          0.05509493	          0.08304893	          0.05000014	          0.05000027	          0.05000018	
          0.56389350	         -2.92967451	          1.63348984	         -6.69108700	          0.75286390	          0.90466296	          0.00637072	         28.59016972	          1.78367389	         -4.14991758	        -19.44715360	         -0.13642704	          5.71328726	         -9.22493547	         -8.19826132	          2.62921850	          5.71801803	         -0.90970205	          7.23333452	          3.72262330	         -5.66206834	         -8.29992181	         21.78725568	         -3.30113768	         -0.21250600	          1.10289931	         -7.03964456	        -13.45187756	         10.63483406	          4.34814246	        -13.82473145	         19.38717419	         18.89439353	         41.25700095	         86.51662706	         86.51662706	          0.05921375	          0.05921387	          0.05000037	          0.05921427	          0.05921407	          0.05224898	          0.30358591	          0.05921401	          0.05921411	          0.05921392	          0.05000232	          0.12841783	          0.11435470	          0.14958978	          0.20264313	          0.18041051	          0.05000045	          0.06555778	          0.06702361	          0.05000129	          0.05000110	          0.21100414	          0.05000317	          0.05000082	          0.31192472	          0.16769783	          0.09090088	          0.05000013	          0.05000037	          0.05000038	          0.05000029	          0.08178364	          0.05096334	          0.05368675	          0.05921391	          0.07136303	          0.05987085	          0.32559126	          0.18754751	          0.09545432	          0.05057106	          0.72170733	          0.46605424	          0.05000016	          0.10532066	          0.07393945	          0.27132117	          0.07366913	          0.07012577	          0.34066443	          0.17744662	          0.08891886	          0.05000545	          0.05000061	          0.05000036	          0.07012690	          0.08307643	          0.21374373	          0.06673000	          0.05000213	          0.05000556	          0.05000315	          0.58314440	          0.08118901	          0.05000116	          0.05000218	          0.05000162	          0.05000189	          0.23121605	          0.67194503	          0.05000015	          0.05000067	          0.06818156	          0.28464084	          0.12495191	          0.13507191	          0.10706323	          0.33135825	          0.44757087	          0.23483110	          0.31079121	          0.70074454	          0.35182137	          0.05000005	          0.15039114	          0.21028151	          0.05000029	          0.05000005	          0.07012618	          0.05000006	          0.05000041	          0.05000048	
          0.57495024	         -2.93004126	          1.76404998	         -7.01539757	          0.77073460	          0.90410895	          0.00600876	         28.22161815	          2.12200411	         -3.97684491	        -19.46124742	         -0.50668202	          5.21777042	        -10.08447134	         -9.80096038	          2.00219630	          4.42160161	         -1.23791388	          7.85534335	          3.82950229	         -7.26019460	         -8.37815186	         25.49044949	         -3.12636391	         -0.40437680	          1.21831586	         -8.13805330	        -13.44986599	         10.59567385	          3.91970523	        -13.81148162	         19.38508501	         18.99607414	         42.70607416	         86.51662706	         86.51662706	          0.05000010	          0.05000024	          0.08316659	          0.05000038	          0.05000030	          0.05000028	          0.25634672	          0.05000019	          0.05000021	          0.05000007	          0.05000076	          0.10843780	          0.35867464	          0.33488941	          0.29023197	          0.23111376	          0.05000242	          0.07013068	          0.05659483	          0.08208090	          0.16088384	          0.25127877	          0.05921501	          0.05921412	          0.50308784	          0.14160357	          0.07675655	          0.05984037	          0.21087381	          0.20354167	          0.17491149	          0.07012570	          0.05925455	          0.06561317	          0.05000003	          0.06504737	          0.05921594	          0.45267949	          0.15836437	          0.08060124	          0.45344473	          0.74995680	          0.69262463	          0.05000003	          0.08893239	          0.06243417	          0.22910269	          0.06220593	          0.05921395	          0.28765595	          0.14983523	          0.07508275	          0.05000839	          0.05000401	          0.05007426	          0.05921493	          0.07014952	          0.32233029	          0.36505998	          0.12886602	          0.05929830	          0.16333723	          0.49354955	          0.06859312	          0.05004075	          0.05006275	          0.05005867	          0.05017820	          0.19523789	          0.60003550	          0.05921321	          0.05003398	          0.05757232	          0.24034960	          0.14801963	          0.14555241	          0.13794068	          0.27979748	          0.37792695	          0.19829037	          0.26243078	          0.59911138	          0.29707661	          0.11483620	          0.23688560	          0.18735029	          0.05000008	          0.05000009	          0.05921426	          0.07451411	          0.05921392	          0.06851693	
          0.58600697	         -2.92741820	          1.90821071	         -7.29873523	          0.78873214	          0.90360087	          0.00562369	         27.74597525	          2.41453246	         -3.77184923	        -19.30884237	         -0.87150095	          4.70990231	        -11.15875066	        -11.66557682	          1.24502398	          2.93217903	         -1.55527631	          8.31039071	          4.01304221	         -8.66891773	         -8.49157532	         28.78415026	         -2.94821820	         -0.61302521	          1.32572504	         -9.19208008	        -13.45741985	         10.73044375	          3.43426518	        -13.80429197	         19.35441066	         19.04569446	         44.13805266	         86.51662706	         86.51662706	          0.34356876	          0.37582373	          0.40687863	          0.30621287	          0.32465589	          0.30942858	          0.21645812	          0.17343601	          0.11881703	          0.11306259	          0.05921376	          0.09156448	          0.30286340	          0.28277937	          0.24507098	          0.23990540	          0.05000075	          0.05921867	          0.21007832	          0.29803400	          0.26363452	          0.26909802	          0.05000125	          0.05000079	          0.42480555	          0.11956991	          0.14750416	          0.05052896	          0.17806097	          0.17186974	          0.14769454	          0.05921385	          0.05003430	          0.05540348	          0.11659241	          0.05492575	          0.05000174	          0.46103005	          0.13372232	          0.06805962	          0.68536615	          0.85605839	          0.82305415	          0.07956043	          0.13794097	          0.05271916	          0.19345875	          0.05252645	          0.05000006	          0.35219448	          0.12652030	          0.06339959	          0.05002102	          0.05000048	          0.05000027	          0.05000096	          0.05923409	          0.40496061	          0.55862893	          0.10881441	          0.05007446	          0.13792231	          0.57544260	          0.05794215	          0.05000047	          0.05000143	          0.05000095	          0.05000090	          0.16485812	          0.61651424	          0.05000007	          0.05000024	          0.05000008	          0.20295043	          0.12498770	          0.12290429	          0.11647704	          0.23625979	          0.31911992	          0.16743553	          0.22159544	          0.50588743	          0.25085034	          0.21749647	          0.31502742	          0.16908591	          0.15831767	          0.05000017	          0.05000030	          0.10913729	          0.05000001	          0.05785545	
